<svg width="32" height="32" viewBox="0 0 32 32" fill="none" xmlns="http://www.w3.org/2000/svg">
<mask id="mask0_1124_246" style="mask-type:luminance" maskUnits="userSpaceOnUse" x="10" y="10" width="12" height="12">
<path d="M10.3264 10.4956H21.6735V21.5048H10.3264V10.4956Z" fill="white"/>
</mask>
<g mask="url(#mask0_1124_246)">
<mask id="mask1_1124_246" style="mask-type:luminance" maskUnits="userSpaceOnUse" x="10" y="10" width="12" height="12">
<path d="M19.6881 16.7619C19.6738 16.8143 19.6584 16.866 19.6415 16.9169C19.5756 16.239 19.2869 15.6048 18.8318 15.1108C19.0145 15.3766 19.1563 15.6772 19.2444 16.0065C19.6608 17.5605 18.7386 19.1576 17.1848 19.5741C17.1323 19.5884 17.0797 19.6004 17.0274 19.6113C17.5814 19.2154 17.9863 18.6482 18.1867 18.007C18.0479 18.2981 17.8583 18.5711 17.6172 18.8121C16.4797 19.9497 14.6353 19.9497 13.4977 18.8121C13.4593 18.7737 13.4225 18.7344 13.3867 18.6946C13.9914 18.9695 14.6658 19.0383 15.3065 18.9053C15.3006 18.9037 15.2946 18.902 15.2886 18.9003C14.9882 18.9169 14.6802 18.8879 14.3737 18.8061C12.8197 18.3894 11.8976 16.7923 12.314 15.2383C12.328 15.1859 12.3437 15.1342 12.3604 15.0833C12.4264 15.7614 12.7151 16.3955 13.1702 16.8893C12.9875 16.6236 12.8458 16.323 12.7575 15.9937C12.3411 14.4399 13.2634 12.8426 14.8173 12.4261C14.8697 12.4121 14.9222 12.3998 14.9747 12.389C14.4205 12.7851 14.0157 13.3522 13.8154 13.9932C13.9543 13.702 14.1437 13.4293 14.3848 13.188C15.5224 12.0504 17.3668 12.0504 18.5044 13.188C18.5428 13.2264 18.5795 13.2658 18.6152 13.3056C17.9953 13.0238 17.3016 12.957 16.6461 13.104C16.9677 13.0786 17.299 13.1062 17.6282 13.1944C19.1823 13.6108 20.1044 15.2081 19.6881 16.7619ZM21.5186 14.8599C21.4974 14.7818 21.474 14.7042 21.4491 14.6282C21.3504 15.6427 20.9182 16.592 20.2373 17.331C20.5106 16.9331 20.7226 16.4834 20.8547 15.9906C21.4779 13.6651 20.0979 11.2747 17.7724 10.6518C17.6939 10.6309 17.6155 10.6125 17.537 10.5961C18.3663 11.1888 18.972 12.0377 19.2716 12.9969C19.0638 12.5613 18.7804 12.1528 18.4196 11.7919C16.7174 10.0895 13.9573 10.0895 12.2549 11.7919C12.1975 11.8493 12.1423 11.9083 12.0888 11.9679C13.0168 11.5461 14.0548 11.4459 15.0355 11.6658C14.5542 11.6282 14.0587 11.6692 13.5659 11.8015C11.2405 12.4244 9.86044 14.8148 10.4835 17.1402C10.5046 17.2187 10.528 17.2957 10.5529 17.3722C10.6517 16.3577 11.0839 15.4084 11.7648 14.6694C11.4914 15.0671 11.2793 15.5169 11.1472 16.0098C10.5242 18.3353 11.9042 20.7254 14.2296 21.3486C14.3081 21.3695 14.3866 21.3879 14.4651 21.4043C13.6359 20.8116 13.03 19.9626 12.7303 19.0034C12.9382 19.4392 13.2217 19.8476 13.5824 20.2085C15.2847 21.9106 18.0447 21.9106 19.747 20.2085C19.8045 20.1509 19.8597 20.0921 19.9134 20.0324C18.9851 20.4541 17.9472 20.5543 16.9665 20.3343C17.4477 20.3722 17.9433 20.3307 18.4361 20.1989C20.7615 19.5758 22.1415 17.1857 21.5186 14.8599Z" fill="white"/>
</mask>
<g mask="url(#mask1_1124_246)">
<mask id="mask2_1124_246" style="mask-type:luminance" maskUnits="userSpaceOnUse" x="10" y="10" width="12" height="12">
<path d="M19.6881 16.7619C19.6738 16.8143 19.6584 16.866 19.6415 16.9169C19.5756 16.239 19.2869 15.6048 18.8318 15.1108C19.0145 15.3766 19.1563 15.6772 19.2444 16.0065C19.6608 17.5605 18.7386 19.1576 17.1848 19.5741C17.1323 19.5884 17.0797 19.6004 17.0274 19.6113C17.5814 19.2154 17.9863 18.6482 18.1867 18.007C18.0479 18.2981 17.8583 18.5711 17.6172 18.8121C16.4797 19.9497 14.6353 19.9497 13.4977 18.8121C13.4593 18.7737 13.4225 18.7344 13.3867 18.6946C13.9914 18.9695 14.6658 19.0383 15.3065 18.9053C15.3006 18.9037 15.2946 18.902 15.2886 18.9003C14.9882 18.9169 14.6802 18.8879 14.3737 18.8061C12.8197 18.3894 11.8976 16.7923 12.314 15.2383C12.328 15.1859 12.3437 15.1342 12.3604 15.0833C12.4264 15.7614 12.7151 16.3955 13.1702 16.8893C12.9875 16.6236 12.8458 16.323 12.7575 15.9937C12.3411 14.4399 13.2634 12.8426 14.8173 12.4261C14.8697 12.4121 14.9222 12.3998 14.9747 12.389C14.4205 12.7851 14.0157 13.3522 13.8154 13.9932C13.9543 13.702 14.1437 13.4293 14.3848 13.188C15.5224 12.0504 17.3668 12.0504 18.5044 13.188C18.5428 13.2264 18.5795 13.2658 18.6152 13.3056C17.9953 13.0238 17.3016 12.957 16.6461 13.104C16.9677 13.0786 17.299 13.1062 17.6282 13.1944C19.1823 13.6108 20.1044 15.2081 19.6881 16.7619ZM21.5186 14.8599C21.4974 14.7818 21.474 14.7042 21.4491 14.6282C21.3504 15.6427 20.9182 16.592 20.2373 17.331C20.5106 16.9331 20.7226 16.4834 20.8547 15.9906C21.4779 13.6651 20.0979 11.2747 17.7724 10.6518C17.6939 10.6309 17.6155 10.6125 17.537 10.5961C18.3663 11.1888 18.972 12.0377 19.2716 12.9969C19.0638 12.5613 18.7804 12.1528 18.4196 11.7919C16.7174 10.0895 13.9573 10.0895 12.2549 11.7919C12.1975 11.8493 12.1423 11.9083 12.0888 11.9679C13.0168 11.5461 14.0548 11.4459 15.0355 11.6658C14.5542 11.6282 14.0587 11.6692 13.5659 11.8015C11.2405 12.4244 9.86044 14.8148 10.4835 17.1402C10.5046 17.2187 10.528 17.2957 10.5529 17.3722C10.6517 16.3577 11.0839 15.4084 11.7648 14.6694C11.4914 15.0671 11.2793 15.5169 11.1472 16.0098C10.5242 18.3353 11.9042 20.7254 14.2296 21.3486C14.3081 21.3695 14.3866 21.3879 14.4651 21.4043C13.6359 20.8116 13.03 19.9626 12.7303 19.0034C12.9382 19.4392 13.2217 19.8476 13.5824 20.2085C15.2847 21.9106 18.0447 21.9106 19.747 20.2085C19.8045 20.1509 19.8597 20.0921 19.9134 20.0324C18.9851 20.4541 17.9472 20.5543 16.9665 20.3343C17.4477 20.3722 17.9433 20.3307 18.4361 20.1989C20.7615 19.5758 22.1415 17.1857 21.5186 14.8599Z" fill="white"/>
</mask>
<g mask="url(#mask2_1124_246)">
<path d="M9.85938 10.0896V21.9106H22.1405V10.0896H9.85938Z" fill="#E90000"/>
</g>
</g>
</g>
<mask id="mask3_1124_246" style="mask-type:luminance" maskUnits="userSpaceOnUse" x="3" y="3" width="26" height="26">
<path d="M3.51825 3.92847H28.4819V28.0713H3.51825V3.92847Z" fill="white"/>
</mask>
<g mask="url(#mask3_1124_246)">
<mask id="mask4_1124_246" style="mask-type:luminance" maskUnits="userSpaceOnUse" x="3" y="3" width="26" height="26">
<path d="M18.26 23.9474C19.4795 23.0758 20.3706 21.8274 20.8114 20.4165C20.5055 21.0572 20.0888 21.6582 19.5581 22.1888C17.0545 24.6924 12.9955 24.6922 10.4919 22.1888C10.4075 22.1043 10.3264 22.0177 10.2476 21.9298C11.5785 22.5348 13.0626 22.6864 14.4728 22.3938C14.4596 22.3899 14.4465 22.386 14.4333 22.3825C13.7721 22.4189 13.0944 22.3554 12.4199 22.1748C8.99995 21.2583 6.97044 17.7432 7.88683 14.3231C7.91776 14.2077 7.95209 14.0942 7.98887 13.982C8.13411 15.4742 8.76965 16.8699 9.77101 17.9571C9.36907 17.3718 9.0571 16.7106 8.86292 15.9858C7.94653 12.5659 9.97613 9.05079 13.396 8.13431C13.5115 8.10319 13.6269 8.07631 13.7424 8.05198C12.5228 8.92404 11.6318 10.1722 11.1911 11.5829C11.4968 10.9421 11.9136 10.3414 12.4442 9.81073C14.9478 7.30742 19.007 7.30742 21.5104 9.81073C21.5949 9.89551 21.676 9.9819 21.7546 10.0698C20.3899 9.44962 18.8633 9.30203 17.4213 9.6256C18.1289 9.57005 18.8578 9.63069 19.5825 9.82497C23.0023 10.7415 25.0318 14.2567 24.1156 17.6765C24.0847 17.7919 24.0504 17.9054 24.0135 18.0174C23.8684 16.5256 23.2327 15.1297 22.2313 14.0425C22.6332 14.6275 22.9454 15.289 23.1395 16.0137C24.0558 19.4338 22.0262 22.9491 18.6062 23.8653C18.491 23.8964 18.3754 23.9233 18.26 23.9474ZM21.3604 25.2405C26.4782 23.8691 29.5154 18.6084 28.1441 13.4906C28.098 13.318 28.0463 13.148 27.9915 12.9805C27.7739 15.2133 26.8229 17.3018 25.3245 18.9285C25.9261 18.0532 26.3928 17.0635 26.6835 15.9788C28.0548 10.8609 25.0176 5.60054 19.8998 4.2292C19.7269 4.1828 19.5543 4.14253 19.3815 4.10632C21.2064 5.41098 22.5398 7.27894 23.1993 9.39021C22.7419 8.43147 22.118 7.53215 21.3242 6.73808C17.5777 2.99188 11.5033 2.99188 7.75678 6.73836C7.63041 6.86464 7.50903 6.99422 7.39115 7.12587C9.43348 6.19751 11.7181 5.97692 13.8761 6.46119C12.8172 6.37792 11.7265 6.46864 10.6419 6.75911C5.52404 8.13063 2.48694 13.3911 3.85827 18.5089C3.90449 18.6815 3.95598 18.8513 4.01096 19.0193C4.22824 16.7863 5.17953 14.6975 6.67799 13.0708C6.0764 13.9462 5.60957 14.9363 5.31901 16.0208C3.94768 21.1386 6.98487 26.399 12.1027 27.7704C12.2754 27.8168 12.4481 27.857 12.621 27.8933C10.7959 26.5889 9.46262 24.7206 8.80303 22.6094C9.26043 23.5683 9.88427 24.4674 10.6783 25.2615C14.4247 29.008 20.4992 29.0077 24.2457 25.2615C24.372 25.1347 24.4934 25.0055 24.6112 24.874C22.5688 25.8021 20.2844 26.0227 18.1262 25.5384C19.1851 25.6217 20.2759 25.5309 21.3604 25.2405Z" fill="white"/>
</mask>
<g mask="url(#mask4_1124_246)">
<mask id="mask5_1124_246" style="mask-type:luminance" maskUnits="userSpaceOnUse" x="3" y="3" width="26" height="26">
<path d="M18.26 23.9474C19.4795 23.0758 20.3706 21.8274 20.8114 20.4165C20.5055 21.0572 20.0888 21.6582 19.5581 22.1888C17.0545 24.6924 12.9955 24.6922 10.4919 22.1888C10.4075 22.1043 10.3264 22.0177 10.2476 21.9298C11.5785 22.5348 13.0626 22.6864 14.4728 22.3938C14.4596 22.3899 14.4465 22.386 14.4333 22.3825C13.7721 22.4189 13.0944 22.3554 12.4199 22.1748C8.99995 21.2583 6.97044 17.7432 7.88683 14.3231C7.91776 14.2077 7.95209 14.0942 7.98887 13.982C8.13411 15.4742 8.76965 16.8699 9.77101 17.9571C9.36907 17.3718 9.0571 16.7106 8.86292 15.9858C7.94653 12.5659 9.97613 9.05079 13.396 8.13431C13.5115 8.10319 13.6269 8.07631 13.7424 8.05198C12.5228 8.92404 11.6318 10.1722 11.1911 11.5829C11.4968 10.9421 11.9136 10.3414 12.4442 9.81073C14.9478 7.30742 19.007 7.30742 21.5104 9.81073C21.5949 9.89551 21.676 9.9819 21.7546 10.0698C20.3899 9.44962 18.8633 9.30203 17.4213 9.6256C18.1289 9.57005 18.8578 9.63069 19.5825 9.82497C23.0023 10.7415 25.0318 14.2567 24.1156 17.6765C24.0847 17.7919 24.0504 17.9054 24.0135 18.0174C23.8684 16.5256 23.2327 15.1297 22.2313 14.0425C22.6332 14.6275 22.9454 15.289 23.1395 16.0137C24.0558 19.4338 22.0262 22.9491 18.6062 23.8653C18.491 23.8964 18.3754 23.9233 18.26 23.9474ZM21.3604 25.2405C26.4782 23.8691 29.5154 18.6084 28.1441 13.4906C28.098 13.318 28.0463 13.148 27.9915 12.9805C27.7739 15.2133 26.8229 17.3018 25.3245 18.9285C25.9261 18.0532 26.3928 17.0635 26.6835 15.9788C28.0548 10.8609 25.0176 5.60054 19.8998 4.2292C19.7269 4.1828 19.5543 4.14253 19.3815 4.10632C21.2064 5.41098 22.5398 7.27894 23.1993 9.39021C22.7419 8.43147 22.118 7.53215 21.3242 6.73808C17.5777 2.99188 11.5033 2.99188 7.75678 6.73836C7.63041 6.86464 7.50903 6.99422 7.39115 7.12587C9.43348 6.19751 11.7181 5.97692 13.8761 6.46119C12.8172 6.37792 11.7265 6.46864 10.6419 6.75911C5.52404 8.13063 2.48694 13.3911 3.85827 18.5089C3.90449 18.6815 3.95598 18.8513 4.01096 19.0193C4.22824 16.7863 5.17953 14.6975 6.67799 13.0708C6.0764 13.9462 5.60957 14.9363 5.31901 16.0208C3.94768 21.1386 6.98487 26.399 12.1027 27.7704C12.2754 27.8168 12.4481 27.857 12.621 27.8933C10.7959 26.5889 9.46262 24.7206 8.80303 22.6094C9.26043 23.5683 9.88427 24.4674 10.6783 25.2615C14.4247 29.008 20.4992 29.0077 24.2457 25.2615C24.372 25.1347 24.4934 25.0055 24.6112 24.874C22.5688 25.8021 20.2844 26.0227 18.1262 25.5384C19.1851 25.6217 20.2759 25.5309 21.3604 25.2405Z" fill="white"/>
</mask>
<g mask="url(#mask5_1124_246)">
<path d="M2.99994 2.99976V28.9998H28.9999V2.99976H2.99994Z" fill="#E90000"/>
</g>
</g>
</g>
</svg>
